solid OpenSCAD_Model
  facet normal -1 0 0
    outer loop
      vertex 2.22045e-16 6.49 6.6
      vertex 2.22045e-16 6.49 1.5
      vertex 2.22045e-16 1.6 6.6
    endloop
  endfacet
  facet normal -1 0 0
    outer loop
      vertex 2.22045e-16 1.6 0
      vertex 2.22045e-16 6.49 1.5
      vertex 2.22045e-16 22.92 0
    endloop
  endfacet
  facet normal -1 0 0
    outer loop
      vertex 2.22045e-16 22.92 6.6
      vertex 2.22045e-16 15.49 1.5
      vertex 2.22045e-16 15.49 6.6
    endloop
  endfacet
  facet normal -1 0 0
    outer loop
      vertex 2.22045e-16 22.92 0
      vertex 2.22045e-16 15.49 1.5
      vertex 2.22045e-16 22.92 6.6
    endloop
  endfacet
  facet normal -1 0 0
    outer loop
      vertex 2.22045e-16 6.49 1.5
      vertex 2.22045e-16 15.49 1.5
      vertex 2.22045e-16 22.92 0
    endloop
  endfacet
  facet normal -1 0 0
    outer loop
      vertex 2.22045e-16 1.6 6.6
      vertex 2.22045e-16 6.49 1.5
      vertex 2.22045e-16 1.6 0
    endloop
  endfacet
  facet normal -0.996195 -0.0871572 0
    outer loop
      vertex 0.024308 1.32216 6.6
      vertex 2.22045e-16 1.6 6.6
      vertex 0.024308 1.32216 0
    endloop
  endfacet
  facet normal -0.996195 -0.0871572 0
    outer loop
      vertex 0.024308 1.32216 0
      vertex 2.22045e-16 1.6 6.6
      vertex 2.22045e-16 1.6 0
    endloop
  endfacet
  facet normal 0 0 -1
    outer loop
      vertex 0.024308 23.1978 0
      vertex 0.096492 23.4672 0
      vertex 2.22045e-16 22.92 0
    endloop
  endfacet
  facet normal 0 0 -1
    outer loop
      vertex 2.22045e-16 22.92 0
      vertex 0.096492 23.4672 0
      vertex 0.214359 23.72 0
    endloop
  endfacet
  facet normal 0 0 -1
    outer loop
      vertex 2.22045e-16 22.92 0
      vertex 0.214359 23.72 0
      vertex 0.374329 23.9485 0
    endloop
  endfacet
  facet normal 0 0 -1
    outer loop
      vertex 2.22045e-16 22.92 0
      vertex 0.374329 23.9485 0
      vertex 0.57154 24.1457 0
    endloop
  endfacet
  facet normal 0 0 -1
    outer loop
      vertex 2.22045e-16 22.92 0
      vertex 0.57154 24.1457 0
      vertex 0.8 24.3056 0
    endloop
  endfacet
  facet normal 0 0 -1
    outer loop
      vertex 2.22045e-16 22.92 0
      vertex 0.8 24.3056 0
      vertex 1.05277 24.4235 0
    endloop
  endfacet
  facet normal 0 0 -1
    outer loop
      vertex 2.22045e-16 22.92 0
      vertex 1.05277 24.4235 0
      vertex 1.32216 24.4957 0
    endloop
  endfacet
  facet normal 0 0 -1
    outer loop
      vertex 2.22045e-16 22.92 0
      vertex 1.32216 24.4957 0
      vertex 1.6 24.52 0
    endloop
  endfacet
  facet normal 0 0 -1
    outer loop
      vertex 2.22045e-16 22.92 0
      vertex 1.6 24.52 0
      vertex 40.61 24.52 0
    endloop
  endfacet
  facet normal 0 0 -1
    outer loop
      vertex 2.22045e-16 22.92 0
      vertex 40.61 24.52 0
      vertex 40.8878 24.4957 0
    endloop
  endfacet
  facet normal 0 0 -1
    outer loop
      vertex 2.22045e-16 22.92 0
      vertex 40.8878 24.4957 0
      vertex 41.1572 24.4235 0
    endloop
  endfacet
  facet normal 0 0 -1
    outer loop
      vertex 2.22045e-16 22.92 0
      vertex 41.1572 24.4235 0
      vertex 41.41 24.3056 0
    endloop
  endfacet
  facet normal 0 0 -1
    outer loop
      vertex 2.22045e-16 22.92 0
      vertex 41.41 24.3056 0
      vertex 41.6385 24.1457 0
    endloop
  endfacet
  facet normal 0 0 -1
    outer loop
      vertex 2.22045e-16 22.92 0
      vertex 41.6385 24.1457 0
      vertex 41.8357 23.9485 0
    endloop
  endfacet
  facet normal 0 0 -1
    outer loop
      vertex 2.22045e-16 22.92 0
      vertex 41.8357 23.9485 0
      vertex 41.9956 23.72 0
    endloop
  endfacet
  facet normal 0 0 -1
    outer loop
      vertex 2.22045e-16 22.92 0
      vertex 41.9956 23.72 0
      vertex 42.1135 23.4672 0
    endloop
  endfacet
  facet normal 0 0 -1
    outer loop
      vertex 2.22045e-16 22.92 0
      vertex 42.1135 23.4672 0
      vertex 42.1857 23.1978 0
    endloop
  endfacet
  facet normal 0 0 -1
    outer loop
      vertex 2.22045e-16 22.92 0
      vertex 42.1857 23.1978 0
      vertex 42.21 22.92 0
    endloop
  endfacet
  facet normal 0 0 -1
    outer loop
      vertex 2.22045e-16 22.92 0
      vertex 42.21 22.92 0
      vertex 42.21 1.6 0
    endloop
  endfacet
  facet normal 0 0 -1
    outer loop
      vertex 2.22045e-16 22.92 0
      vertex 42.21 1.6 0
      vertex 42.1857 1.32216 0
    endloop
  endfacet
  facet normal 0 0 -1
    outer loop
      vertex 2.22045e-16 22.92 0
      vertex 42.1857 1.32216 0
      vertex 42.1135 1.05277 0
    endloop
  endfacet
  facet normal 0 0 -1
    outer loop
      vertex 2.22045e-16 22.92 0
      vertex 42.1135 1.05277 0
      vertex 41.9956 0.8 0
    endloop
  endfacet
  facet normal 0 0 -1
    outer loop
      vertex 2.22045e-16 22.92 0
      vertex 41.9956 0.8 0
      vertex 41.8357 0.57154 0
    endloop
  endfacet
  facet normal 0 0 -1
    outer loop
      vertex 2.22045e-16 22.92 0
      vertex 41.8357 0.57154 0
      vertex 41.6385 0.374329 0
    endloop
  endfacet
  facet normal 0 0 -1
    outer loop
      vertex 2.22045e-16 22.92 0
      vertex 41.6385 0.374329 0
      vertex 41.41 0.214359 0
    endloop
  endfacet
  facet normal 0 0 -1
    outer loop
      vertex 2.22045e-16 22.92 0
      vertex 41.41 0.214359 0
      vertex 41.1572 0.096492 0
    endloop
  endfacet
  facet normal 0 0 -1
    outer loop
      vertex 2.22045e-16 22.92 0
      vertex 41.1572 0.096492 0
      vertex 40.8878 0.024308 0
    endloop
  endfacet
  facet normal 0 0 -1
    outer loop
      vertex 2.22045e-16 22.92 0
      vertex 40.8878 0.024308 0
      vertex 40.61 2.22045e-16 0
    endloop
  endfacet
  facet normal 0 0 -1
    outer loop
      vertex 2.22045e-16 22.92 0
      vertex 40.61 2.22045e-16 0
      vertex 1.6 2.22045e-16 0
    endloop
  endfacet
  facet normal 0 0 -1
    outer loop
      vertex 2.22045e-16 22.92 0
      vertex 1.6 2.22045e-16 0
      vertex 1.32216 0.024308 0
    endloop
  endfacet
  facet normal 0 0 -1
    outer loop
      vertex 2.22045e-16 22.92 0
      vertex 1.32216 0.024308 0
      vertex 1.05277 0.096492 0
    endloop
  endfacet
  facet normal 0 0 -1
    outer loop
      vertex 2.22045e-16 22.92 0
      vertex 1.05277 0.096492 0
      vertex 0.8 0.214359 0
    endloop
  endfacet
  facet normal 0 0 -1
    outer loop
      vertex 2.22045e-16 22.92 0
      vertex 0.8 0.214359 0
      vertex 0.57154 0.374329 0
    endloop
  endfacet
  facet normal 0 0 -1
    outer loop
      vertex 2.22045e-16 22.92 0
      vertex 0.57154 0.374329 0
      vertex 0.374329 0.57154 0
    endloop
  endfacet
  facet normal 0 0 -1
    outer loop
      vertex 2.22045e-16 22.92 0
      vertex 0.374329 0.57154 0
      vertex 0.214359 0.8 0
    endloop
  endfacet
  facet normal 0 0 -1
    outer loop
      vertex 2.22045e-16 22.92 0
      vertex 0.214359 0.8 0
      vertex 0.096492 1.05277 0
    endloop
  endfacet
  facet normal 0 0 -1
    outer loop
      vertex 2.22045e-16 22.92 0
      vertex 0.096492 1.05277 0
      vertex 0.024308 1.32216 0
    endloop
  endfacet
  facet normal 0 0 -1
    outer loop
      vertex 2.22045e-16 22.92 0
      vertex 0.024308 1.32216 0
      vertex 2.22045e-16 1.6 0
    endloop
  endfacet
  facet normal 0 0 1
    outer loop
      vertex 0.024308 1.32216 6.6
      vertex 0.096492 1.05277 6.6
      vertex 0.214359 0.8 6.6
    endloop
  endfacet
  facet normal 0 0 1
    outer loop
      vertex 0.57154 0.374329 6.6
      vertex 0.024308 1.32216 6.6
      vertex 0.374329 0.57154 6.6
    endloop
  endfacet
  facet normal 0 0 1
    outer loop
      vertex 0.374329 0.57154 6.6
      vertex 0.024308 1.32216 6.6
      vertex 0.214359 0.8 6.6
    endloop
  endfacet
  facet normal 0 0 1
    outer loop
      vertex 0.8 0.214359 6.6
      vertex 0.024308 1.32216 6.6
      vertex 0.57154 0.374329 6.6
    endloop
  endfacet
  facet normal 0 0 1
    outer loop
      vertex 1.05277 0.096492 6.6
      vertex 0.024308 1.32216 6.6
      vertex 0.8 0.214359 6.6
    endloop
  endfacet
  facet normal 0 0 1
    outer loop
      vertex 1.32216 0.024308 6.6
      vertex 0.024308 1.32216 6.6
      vertex 1.05277 0.096492 6.6
    endloop
  endfacet
  facet normal 0 0 1
    outer loop
      vertex 1.6 2.22045e-16 6.6
      vertex 0.024308 1.32216 6.6
      vertex 1.32216 0.024308 6.6
    endloop
  endfacet
  facet normal 0 0 1
    outer loop
      vertex 40.61 2.22045e-16 6.6
      vertex 0.024308 1.32216 6.6
      vertex 1.6 2.22045e-16 6.6
    endloop
  endfacet
  facet normal 0 0 1
    outer loop
      vertex 40.8878 0.024308 6.6
      vertex 0.024308 1.32216 6.6
      vertex 40.61 2.22045e-16 6.6
    endloop
  endfacet
  facet normal 0 0 1
    outer loop
      vertex 41.1572 0.096492 6.6
      vertex 0.024308 1.32216 6.6
      vertex 40.8878 0.024308 6.6
    endloop
  endfacet
  facet normal 0 0 1
    outer loop
      vertex 41.41 0.214359 6.6
      vertex 0.024308 1.32216 6.6
      vertex 41.1572 0.096492 6.6
    endloop
  endfacet
  facet normal 0 0 1
    outer loop
      vertex 41.6385 0.374329 6.6
      vertex 0.024308 1.32216 6.6
      vertex 41.41 0.214359 6.6
    endloop
  endfacet
  facet normal 0 0 1
    outer loop
      vertex 41.8357 0.57154 6.6
      vertex 0.024308 1.32216 6.6
      vertex 41.6385 0.374329 6.6
    endloop
  endfacet
  facet normal 0 0 1
    outer loop
      vertex 41.9956 0.8 6.6
      vertex 0.024308 1.32216 6.6
      vertex 41.8357 0.57154 6.6
    endloop
  endfacet
  facet normal 0 0 1
    outer loop
      vertex 42.1135 1.05277 6.6
      vertex 0.024308 1.32216 6.6
      vertex 41.9956 0.8 6.6
    endloop
  endfacet
  facet normal 0 0 1
    outer loop
      vertex 42.1857 1.32216 6.6
      vertex 0.024308 1.32216 6.6
      vertex 42.1135 1.05277 6.6
    endloop
  endfacet
  facet normal 0 0 1
    outer loop
      vertex 42.21 1.6 6.6
      vertex 0.024308 1.32216 6.6
      vertex 42.1857 1.32216 6.6
    endloop
  endfacet
  facet normal 0 0 1
    outer loop
      vertex 40.61 1.6 6.6
      vertex 0.024308 1.32216 6.6
      vertex 42.21 1.6 6.6
    endloop
  endfacet
  facet normal 0 0 1
    outer loop
      vertex 1.6 6.49 6.6
      vertex 2.22045e-16 6.49 6.6
      vertex 0.024308 1.32216 6.6
    endloop
  endfacet
  facet normal 0 0 1
    outer loop
      vertex 40.61 22.92 6.6
      vertex 42.1857 23.1978 6.6
      vertex 42.1135 23.4672 6.6
    endloop
  endfacet
  facet normal 0 0 1
    outer loop
      vertex 40.61 22.92 6.6
      vertex 42.21 22.92 6.6
      vertex 42.1857 23.1978 6.6
    endloop
  endfacet
  facet normal 0 0 1
    outer loop
      vertex 40.61 22.92 6.6
      vertex 40.61 1.6 6.6
      vertex 42.21 22.92 6.6
    endloop
  endfacet
  facet normal 0 0 1
    outer loop
      vertex 1.6 22.92 6.6
      vertex 40.8878 24.4957 6.6
      vertex 40.61 24.52 6.6
    endloop
  endfacet
  facet normal 0 0 1
    outer loop
      vertex 1.6 22.92 6.6
      vertex 41.1572 24.4235 6.6
      vertex 40.8878 24.4957 6.6
    endloop
  endfacet
  facet normal 0 0 1
    outer loop
      vertex 1.6 22.92 6.6
      vertex 41.41 24.3056 6.6
      vertex 41.1572 24.4235 6.6
    endloop
  endfacet
  facet normal 0 0 1
    outer loop
      vertex 1.6 22.92 6.6
      vertex 41.6385 24.1457 6.6
      vertex 41.41 24.3056 6.6
    endloop
  endfacet
  facet normal 0 0 1
    outer loop
      vertex 1.6 22.92 6.6
      vertex 41.8357 23.9485 6.6
      vertex 41.6385 24.1457 6.6
    endloop
  endfacet
  facet normal 0 0 1
    outer loop
      vertex 1.6 22.92 6.6
      vertex 41.9956 23.72 6.6
      vertex 41.8357 23.9485 6.6
    endloop
  endfacet
  facet normal 0 0 1
    outer loop
      vertex 1.6 22.92 6.6
      vertex 40.61 22.92 6.6
      vertex 41.9956 23.72 6.6
    endloop
  endfacet
  facet normal 0 0 1
    outer loop
      vertex 1.6 24.52 6.6
      vertex 1.6 22.92 6.6
      vertex 40.61 24.52 6.6
    endloop
  endfacet
  facet normal 0 0 1
    outer loop
      vertex 41.9956 23.72 6.6
      vertex 40.61 22.92 6.6
      vertex 42.1135 23.4672 6.6
    endloop
  endfacet
  facet normal 0 0 1
    outer loop
      vertex 42.21 22.92 6.6
      vertex 40.61 1.6 6.6
      vertex 42.21 1.6 6.6
    endloop
  endfacet
  facet normal 0 0 1
    outer loop
      vertex 1.6 1.6 6.6
      vertex 0.024308 1.32216 6.6
      vertex 40.61 1.6 6.6
    endloop
  endfacet
  facet normal 0 0 1
    outer loop
      vertex 1.6 1.6 6.6
      vertex 1.6 6.49 6.6
      vertex 0.024308 1.32216 6.6
    endloop
  endfacet
  facet normal 0 0 1
    outer loop
      vertex 2.22045e-16 1.6 6.6
      vertex 0.024308 1.32216 6.6
      vertex 2.22045e-16 6.49 6.6
    endloop
  endfacet
  facet normal 0 0 1
    outer loop
      vertex 2.22045e-16 15.49 6.6
      vertex 0.024308 23.1978 6.6
      vertex 2.22045e-16 22.92 6.6
    endloop
  endfacet
  facet normal 0 0 1
    outer loop
      vertex 2.22045e-16 15.49 6.6
      vertex 0.096492 23.4672 6.6
      vertex 0.024308 23.1978 6.6
    endloop
  endfacet
  facet normal 0 0 1
    outer loop
      vertex 2.22045e-16 15.49 6.6
      vertex 0.214359 23.72 6.6
      vertex 0.096492 23.4672 6.6
    endloop
  endfacet
  facet normal 0 0 1
    outer loop
      vertex 2.22045e-16 15.49 6.6
      vertex 0.374329 23.9485 6.6
      vertex 0.214359 23.72 6.6
    endloop
  endfacet
  facet normal 0 0 1
    outer loop
      vertex 2.22045e-16 15.49 6.6
      vertex 0.57154 24.1457 6.6
      vertex 0.374329 23.9485 6.6
    endloop
  endfacet
  facet normal 0 0 1
    outer loop
      vertex 2.22045e-16 15.49 6.6
      vertex 0.8 24.3056 6.6
      vertex 0.57154 24.1457 6.6
    endloop
  endfacet
  facet normal 0 0 1
    outer loop
      vertex 2.22045e-16 15.49 6.6
      vertex 1.05277 24.4235 6.6
      vertex 0.8 24.3056 6.6
    endloop
  endfacet
  facet normal 0 0 1
    outer loop
      vertex 2.22045e-16 15.49 6.6
      vertex 1.32216 24.4957 6.6
      vertex 1.05277 24.4235 6.6
    endloop
  endfacet
  facet normal 0 0 1
    outer loop
      vertex 2.22045e-16 15.49 6.6
      vertex 1.6 24.52 6.6
      vertex 1.32216 24.4957 6.6
    endloop
  endfacet
  facet normal 0 0 1
    outer loop
      vertex 2.22045e-16 15.49 6.6
      vertex 1.6 22.92 6.6
      vertex 1.6 24.52 6.6
    endloop
  endfacet
  facet normal 0 0 1
    outer loop
      vertex 2.22045e-16 15.49 6.6
      vertex 1.6 15.49 6.6
      vertex 1.6 22.92 6.6
    endloop
  endfacet
  facet normal -0.996195 0.0871572 0
    outer loop
      vertex 0.024308 23.1978 6.6
      vertex 0.024308 23.1978 0
      vertex 2.22045e-16 22.92 6.6
    endloop
  endfacet
  facet normal -0.996195 0.0871572 0
    outer loop
      vertex 2.22045e-16 22.92 6.6
      vertex 0.024308 23.1978 0
      vertex 2.22045e-16 22.92 0
    endloop
  endfacet
  facet normal 0 -1 0
    outer loop
      vertex 1.6 15.49 1.5
      vertex 1.6 15.49 6.6
      vertex 2.22045e-16 15.49 6.6
    endloop
  endfacet
  facet normal 0 -1 0
    outer loop
      vertex 2.22045e-16 15.49 1.5
      vertex 1.6 15.49 1.5
      vertex 2.22045e-16 15.49 6.6
    endloop
  endfacet
  facet normal 0 0 1
    outer loop
      vertex 1.6 6.49 1.5
      vertex 1.6 1.6 1.5
      vertex 40.61 1.6 1.5
    endloop
  endfacet
  facet normal 0 0 1
    outer loop
      vertex 1.6 15.49 1.5
      vertex 1.6 6.49 1.5
      vertex 40.61 22.92 1.5
    endloop
  endfacet
  facet normal 0 0 1
    outer loop
      vertex 40.61 22.92 1.5
      vertex 1.6 6.49 1.5
      vertex 40.61 1.6 1.5
    endloop
  endfacet
  facet normal 0 0 1
    outer loop
      vertex 2.22045e-16 15.49 1.5
      vertex 1.6 6.49 1.5
      vertex 1.6 15.49 1.5
    endloop
  endfacet
  facet normal 0 0 1
    outer loop
      vertex 1.6 22.92 1.5
      vertex 1.6 15.49 1.5
      vertex 40.61 22.92 1.5
    endloop
  endfacet
  facet normal 0 0 1
    outer loop
      vertex 2.22045e-16 6.49 1.5
      vertex 1.6 6.49 1.5
      vertex 2.22045e-16 15.49 1.5
    endloop
  endfacet
  facet normal 0 1 0
    outer loop
      vertex 1.6 6.49 6.6
      vertex 1.6 6.49 1.5
      vertex 2.22045e-16 6.49 6.6
    endloop
  endfacet
  facet normal 0 1 0
    outer loop
      vertex 2.22045e-16 6.49 6.6
      vertex 1.6 6.49 1.5
      vertex 2.22045e-16 6.49 1.5
    endloop
  endfacet
  facet normal -0.965926 -0.258818 0
    outer loop
      vertex 0.096492 1.05277 6.6
      vertex 0.024308 1.32216 6.6
      vertex 0.096492 1.05277 0
    endloop
  endfacet
  facet normal -0.965926 -0.258818 0
    outer loop
      vertex 0.096492 1.05277 0
      vertex 0.024308 1.32216 6.6
      vertex 0.024308 1.32216 0
    endloop
  endfacet
  facet normal -0.906309 -0.422616 0
    outer loop
      vertex 0.214359 0.8 6.6
      vertex 0.096492 1.05277 6.6
      vertex 0.214359 0.8 0
    endloop
  endfacet
  facet normal -0.906309 -0.422616 0
    outer loop
      vertex 0.214359 0.8 0
      vertex 0.096492 1.05277 6.6
      vertex 0.096492 1.05277 0
    endloop
  endfacet
  facet normal -0.819151 -0.573578 0
    outer loop
      vertex 0.374329 0.57154 6.6
      vertex 0.214359 0.8 6.6
      vertex 0.374329 0.57154 0
    endloop
  endfacet
  facet normal -0.819151 -0.573578 0
    outer loop
      vertex 0.374329 0.57154 0
      vertex 0.214359 0.8 6.6
      vertex 0.214359 0.8 0
    endloop
  endfacet
  facet normal -0.707107 -0.707107 0
    outer loop
      vertex 0.57154 0.374329 0
      vertex 0.57154 0.374329 6.6
      vertex 0.374329 0.57154 6.6
    endloop
  endfacet
  facet normal -0.707107 -0.707107 0
    outer loop
      vertex 0.374329 0.57154 0
      vertex 0.57154 0.374329 0
      vertex 0.374329 0.57154 6.6
    endloop
  endfacet
  facet normal -0.573578 -0.819151 0
    outer loop
      vertex 0.8 0.214359 0
      vertex 0.8 0.214359 6.6
      vertex 0.57154 0.374329 6.6
    endloop
  endfacet
  facet normal -0.573578 -0.819151 0
    outer loop
      vertex 0.57154 0.374329 0
      vertex 0.8 0.214359 0
      vertex 0.57154 0.374329 6.6
    endloop
  endfacet
  facet normal -0.422616 -0.906309 0
    outer loop
      vertex 1.05277 0.096492 0
      vertex 1.05277 0.096492 6.6
      vertex 0.8 0.214359 6.6
    endloop
  endfacet
  facet normal -0.422616 -0.906309 0
    outer loop
      vertex 0.8 0.214359 0
      vertex 1.05277 0.096492 0
      vertex 0.8 0.214359 6.6
    endloop
  endfacet
  facet normal -0.258818 -0.965926 0
    outer loop
      vertex 1.32216 0.024308 0
      vertex 1.32216 0.024308 6.6
      vertex 1.05277 0.096492 6.6
    endloop
  endfacet
  facet normal -0.258818 -0.965926 0
    outer loop
      vertex 1.05277 0.096492 0
      vertex 1.32216 0.024308 0
      vertex 1.05277 0.096492 6.6
    endloop
  endfacet
  facet normal -0.0871572 -0.996195 0
    outer loop
      vertex 1.6 2.22045e-16 0
      vertex 1.6 2.22045e-16 6.6
      vertex 1.32216 0.024308 6.6
    endloop
  endfacet
  facet normal -0.0871572 -0.996195 0
    outer loop
      vertex 1.32216 0.024308 0
      vertex 1.6 2.22045e-16 0
      vertex 1.32216 0.024308 6.6
    endloop
  endfacet
  facet normal 0 -1 0
    outer loop
      vertex 40.61 2.22045e-16 0
      vertex 40.61 2.22045e-16 6.6
      vertex 1.6 2.22045e-16 6.6
    endloop
  endfacet
  facet normal 0 -1 0
    outer loop
      vertex 1.6 2.22045e-16 0
      vertex 40.61 2.22045e-16 0
      vertex 1.6 2.22045e-16 6.6
    endloop
  endfacet
  facet normal 0.0871572 -0.996195 0
    outer loop
      vertex 40.8878 0.024308 0
      vertex 40.8878 0.024308 6.6
      vertex 40.61 2.22045e-16 6.6
    endloop
  endfacet
  facet normal 0.0871572 -0.996195 0
    outer loop
      vertex 40.61 2.22045e-16 0
      vertex 40.8878 0.024308 0
      vertex 40.61 2.22045e-16 6.6
    endloop
  endfacet
  facet normal 0.258818 -0.965926 0
    outer loop
      vertex 41.1572 0.096492 0
      vertex 41.1572 0.096492 6.6
      vertex 40.8878 0.024308 6.6
    endloop
  endfacet
  facet normal 0.258818 -0.965926 0
    outer loop
      vertex 40.8878 0.024308 0
      vertex 41.1572 0.096492 0
      vertex 40.8878 0.024308 6.6
    endloop
  endfacet
  facet normal 0.422616 -0.906309 0
    outer loop
      vertex 41.41 0.214359 0
      vertex 41.41 0.214359 6.6
      vertex 41.1572 0.096492 6.6
    endloop
  endfacet
  facet normal 0.422616 -0.906309 0
    outer loop
      vertex 41.1572 0.096492 0
      vertex 41.41 0.214359 0
      vertex 41.1572 0.096492 6.6
    endloop
  endfacet
  facet normal 0.573578 -0.819151 0
    outer loop
      vertex 41.6385 0.374329 0
      vertex 41.6385 0.374329 6.6
      vertex 41.41 0.214359 6.6
    endloop
  endfacet
  facet normal 0.573578 -0.819151 0
    outer loop
      vertex 41.41 0.214359 0
      vertex 41.6385 0.374329 0
      vertex 41.41 0.214359 6.6
    endloop
  endfacet
  facet normal 0.707107 -0.707107 0
    outer loop
      vertex 41.8357 0.57154 0
      vertex 41.8357 0.57154 6.6
      vertex 41.6385 0.374329 6.6
    endloop
  endfacet
  facet normal 0.707107 -0.707107 0
    outer loop
      vertex 41.6385 0.374329 0
      vertex 41.8357 0.57154 0
      vertex 41.6385 0.374329 6.6
    endloop
  endfacet
  facet normal 0.819151 -0.573578 0
    outer loop
      vertex 41.9956 0.8 0
      vertex 41.9956 0.8 6.6
      vertex 41.8357 0.57154 6.6
    endloop
  endfacet
  facet normal 0.819151 -0.573578 0
    outer loop
      vertex 41.8357 0.57154 0
      vertex 41.9956 0.8 0
      vertex 41.8357 0.57154 6.6
    endloop
  endfacet
  facet normal 0.906309 -0.422616 0
    outer loop
      vertex 42.1135 1.05277 0
      vertex 42.1135 1.05277 6.6
      vertex 41.9956 0.8 6.6
    endloop
  endfacet
  facet normal 0.906309 -0.422616 0
    outer loop
      vertex 41.9956 0.8 0
      vertex 42.1135 1.05277 0
      vertex 41.9956 0.8 6.6
    endloop
  endfacet
  facet normal 0.965926 -0.258818 0
    outer loop
      vertex 42.1857 1.32216 0
      vertex 42.1857 1.32216 6.6
      vertex 42.1135 1.05277 6.6
    endloop
  endfacet
  facet normal 0.965926 -0.258818 0
    outer loop
      vertex 42.1135 1.05277 0
      vertex 42.1857 1.32216 0
      vertex 42.1135 1.05277 6.6
    endloop
  endfacet
  facet normal 0.996195 -0.0871572 0
    outer loop
      vertex 42.21 1.6 0
      vertex 42.21 1.6 6.6
      vertex 42.1857 1.32216 6.6
    endloop
  endfacet
  facet normal 0.996195 -0.0871572 0
    outer loop
      vertex 42.1857 1.32216 0
      vertex 42.21 1.6 0
      vertex 42.1857 1.32216 6.6
    endloop
  endfacet
  facet normal 1 0 0
    outer loop
      vertex 42.21 22.92 0
      vertex 42.21 22.92 6.6
      vertex 42.21 1.6 6.6
    endloop
  endfacet
  facet normal 1 0 0
    outer loop
      vertex 42.21 1.6 0
      vertex 42.21 22.92 0
      vertex 42.21 1.6 6.6
    endloop
  endfacet
  facet normal 0.996195 0.0871572 0
    outer loop
      vertex 42.1857 23.1978 6.6
      vertex 42.21 22.92 6.6
      vertex 42.21 22.92 0
    endloop
  endfacet
  facet normal 0.996195 0.0871572 0
    outer loop
      vertex 42.1857 23.1978 0
      vertex 42.1857 23.1978 6.6
      vertex 42.21 22.92 0
    endloop
  endfacet
  facet normal 0.965926 0.258818 0
    outer loop
      vertex 42.1135 23.4672 6.6
      vertex 42.1857 23.1978 6.6
      vertex 42.1857 23.1978 0
    endloop
  endfacet
  facet normal 0.965926 0.258818 0
    outer loop
      vertex 42.1135 23.4672 0
      vertex 42.1135 23.4672 6.6
      vertex 42.1857 23.1978 0
    endloop
  endfacet
  facet normal 0.906309 0.422616 0
    outer loop
      vertex 41.9956 23.72 6.6
      vertex 42.1135 23.4672 6.6
      vertex 42.1135 23.4672 0
    endloop
  endfacet
  facet normal 0.906309 0.422616 0
    outer loop
      vertex 41.9956 23.72 0
      vertex 41.9956 23.72 6.6
      vertex 42.1135 23.4672 0
    endloop
  endfacet
  facet normal 0.819151 0.573578 0
    outer loop
      vertex 41.8357 23.9485 6.6
      vertex 41.9956 23.72 6.6
      vertex 41.9956 23.72 0
    endloop
  endfacet
  facet normal 0.819151 0.573578 0
    outer loop
      vertex 41.8357 23.9485 0
      vertex 41.8357 23.9485 6.6
      vertex 41.9956 23.72 0
    endloop
  endfacet
  facet normal 0.707107 0.707107 0
    outer loop
      vertex 41.8357 23.9485 6.6
      vertex 41.8357 23.9485 0
      vertex 41.6385 24.1457 6.6
    endloop
  endfacet
  facet normal 0.707107 0.707107 0
    outer loop
      vertex 41.6385 24.1457 6.6
      vertex 41.8357 23.9485 0
      vertex 41.6385 24.1457 0
    endloop
  endfacet
  facet normal 0.573578 0.819151 0
    outer loop
      vertex 41.6385 24.1457 6.6
      vertex 41.6385 24.1457 0
      vertex 41.41 24.3056 6.6
    endloop
  endfacet
  facet normal 0.573578 0.819151 0
    outer loop
      vertex 41.41 24.3056 6.6
      vertex 41.6385 24.1457 0
      vertex 41.41 24.3056 0
    endloop
  endfacet
  facet normal 0.422616 0.906309 0
    outer loop
      vertex 41.41 24.3056 6.6
      vertex 41.41 24.3056 0
      vertex 41.1572 24.4235 6.6
    endloop
  endfacet
  facet normal 0.422616 0.906309 0
    outer loop
      vertex 41.1572 24.4235 6.6
      vertex 41.41 24.3056 0
      vertex 41.1572 24.4235 0
    endloop
  endfacet
  facet normal 0.258818 0.965926 0
    outer loop
      vertex 41.1572 24.4235 6.6
      vertex 41.1572 24.4235 0
      vertex 40.8878 24.4957 6.6
    endloop
  endfacet
  facet normal 0.258818 0.965926 0
    outer loop
      vertex 40.8878 24.4957 6.6
      vertex 41.1572 24.4235 0
      vertex 40.8878 24.4957 0
    endloop
  endfacet
  facet normal 0.0871572 0.996195 0
    outer loop
      vertex 40.8878 24.4957 6.6
      vertex 40.8878 24.4957 0
      vertex 40.61 24.52 6.6
    endloop
  endfacet
  facet normal 0.0871572 0.996195 0
    outer loop
      vertex 40.61 24.52 6.6
      vertex 40.8878 24.4957 0
      vertex 40.61 24.52 0
    endloop
  endfacet
  facet normal 0 1 0
    outer loop
      vertex 40.61 24.52 6.6
      vertex 40.61 24.52 0
      vertex 1.6 24.52 6.6
    endloop
  endfacet
  facet normal 0 1 0
    outer loop
      vertex 1.6 24.52 6.6
      vertex 40.61 24.52 0
      vertex 1.6 24.52 0
    endloop
  endfacet
  facet normal -0.0871572 0.996195 0
    outer loop
      vertex 1.6 24.52 6.6
      vertex 1.6 24.52 0
      vertex 1.32216 24.4957 6.6
    endloop
  endfacet
  facet normal -0.0871572 0.996195 0
    outer loop
      vertex 1.32216 24.4957 6.6
      vertex 1.6 24.52 0
      vertex 1.32216 24.4957 0
    endloop
  endfacet
  facet normal -0.258818 0.965926 0
    outer loop
      vertex 1.32216 24.4957 6.6
      vertex 1.32216 24.4957 0
      vertex 1.05277 24.4235 6.6
    endloop
  endfacet
  facet normal -0.258818 0.965926 0
    outer loop
      vertex 1.05277 24.4235 6.6
      vertex 1.32216 24.4957 0
      vertex 1.05277 24.4235 0
    endloop
  endfacet
  facet normal -0.422616 0.906309 0
    outer loop
      vertex 1.05277 24.4235 6.6
      vertex 1.05277 24.4235 0
      vertex 0.8 24.3056 6.6
    endloop
  endfacet
  facet normal -0.422616 0.906309 0
    outer loop
      vertex 0.8 24.3056 6.6
      vertex 1.05277 24.4235 0
      vertex 0.8 24.3056 0
    endloop
  endfacet
  facet normal -0.573578 0.819151 0
    outer loop
      vertex 0.8 24.3056 6.6
      vertex 0.8 24.3056 0
      vertex 0.57154 24.1457 6.6
    endloop
  endfacet
  facet normal -0.573578 0.819151 0
    outer loop
      vertex 0.57154 24.1457 6.6
      vertex 0.8 24.3056 0
      vertex 0.57154 24.1457 0
    endloop
  endfacet
  facet normal -0.707107 0.707107 0
    outer loop
      vertex 0.57154 24.1457 6.6
      vertex 0.57154 24.1457 0
      vertex 0.374329 23.9485 6.6
    endloop
  endfacet
  facet normal -0.707107 0.707107 0
    outer loop
      vertex 0.374329 23.9485 6.6
      vertex 0.57154 24.1457 0
      vertex 0.374329 23.9485 0
    endloop
  endfacet
  facet normal -0.819151 0.573578 0
    outer loop
      vertex 0.374329 23.9485 6.6
      vertex 0.374329 23.9485 0
      vertex 0.214359 23.72 6.6
    endloop
  endfacet
  facet normal -0.819151 0.573578 0
    outer loop
      vertex 0.214359 23.72 6.6
      vertex 0.374329 23.9485 0
      vertex 0.214359 23.72 0
    endloop
  endfacet
  facet normal -0.906309 0.422616 0
    outer loop
      vertex 0.214359 23.72 6.6
      vertex 0.214359 23.72 0
      vertex 0.096492 23.4672 6.6
    endloop
  endfacet
  facet normal -0.906309 0.422616 0
    outer loop
      vertex 0.096492 23.4672 6.6
      vertex 0.214359 23.72 0
      vertex 0.096492 23.4672 0
    endloop
  endfacet
  facet normal -0.965926 0.258818 0
    outer loop
      vertex 0.096492 23.4672 6.6
      vertex 0.096492 23.4672 0
      vertex 0.024308 23.1978 6.6
    endloop
  endfacet
  facet normal -0.965926 0.258818 0
    outer loop
      vertex 0.024308 23.1978 6.6
      vertex 0.096492 23.4672 0
      vertex 0.024308 23.1978 0
    endloop
  endfacet
  facet normal 1 0 0
    outer loop
      vertex 1.6 6.49 1.5
      vertex 1.6 6.49 6.6
      vertex 1.6 1.6 6.6
    endloop
  endfacet
  facet normal 1 0 0
    outer loop
      vertex 1.6 1.6 1.5
      vertex 1.6 6.49 1.5
      vertex 1.6 1.6 6.6
    endloop
  endfacet
  facet normal 0 1 0
    outer loop
      vertex 40.61 1.6 6.6
      vertex 40.61 1.6 1.5
      vertex 1.6 1.6 6.6
    endloop
  endfacet
  facet normal 0 1 0
    outer loop
      vertex 1.6 1.6 6.6
      vertex 40.61 1.6 1.5
      vertex 1.6 1.6 1.5
    endloop
  endfacet
  facet normal -1 0 0
    outer loop
      vertex 40.61 22.92 6.6
      vertex 40.61 22.92 1.5
      vertex 40.61 1.6 6.6
    endloop
  endfacet
  facet normal -1 0 0
    outer loop
      vertex 40.61 1.6 6.6
      vertex 40.61 22.92 1.5
      vertex 40.61 1.6 1.5
    endloop
  endfacet
  facet normal 0 -1 0
    outer loop
      vertex 40.61 22.92 1.5
      vertex 40.61 22.92 6.6
      vertex 1.6 22.92 6.6
    endloop
  endfacet
  facet normal 0 -1 0
    outer loop
      vertex 1.6 22.92 1.5
      vertex 40.61 22.92 1.5
      vertex 1.6 22.92 6.6
    endloop
  endfacet
  facet normal 1 0 0
    outer loop
      vertex 1.6 22.92 1.5
      vertex 1.6 22.92 6.6
      vertex 1.6 15.49 6.6
    endloop
  endfacet
  facet normal 1 0 0
    outer loop
      vertex 1.6 15.49 1.5
      vertex 1.6 22.92 1.5
      vertex 1.6 15.49 6.6
    endloop
  endfacet
endsolid OpenSCAD_Model
