solid OpenSCAD_Model
  facet normal -1 0 0
    outer loop
      vertex 0 6.89 5.1
      vertex 0 6.89 3
      vertex 0 2 5.1
    endloop
  endfacet
  facet normal -1 0 0
    outer loop
      vertex 0 2 0
      vertex 0 6.89 3
      vertex 0 23.32 0
    endloop
  endfacet
  facet normal -1 0 0
    outer loop
      vertex 0 23.32 5.1
      vertex 0 15.89 3
      vertex 0 15.89 5.1
    endloop
  endfacet
  facet normal -1 0 0
    outer loop
      vertex 0 23.32 0
      vertex 0 15.89 3
      vertex 0 23.32 5.1
    endloop
  endfacet
  facet normal -1 0 0
    outer loop
      vertex 0 6.89 3
      vertex 0 15.89 3
      vertex 0 23.32 0
    endloop
  endfacet
  facet normal -1 0 0
    outer loop
      vertex 0 2 5.1
      vertex 0 6.89 3
      vertex 0 2 0
    endloop
  endfacet
  facet normal -0.996195 -0.0871544 0
    outer loop
      vertex 0.030384 1.6527 5.1
      vertex 0 2 5.1
      vertex 0.030384 1.6527 0
    endloop
  endfacet
  facet normal -0.996195 -0.0871544 0
    outer loop
      vertex 0.030384 1.6527 0
      vertex 0 2 5.1
      vertex 0 2 0
    endloop
  endfacet
  facet normal 0 0 -1
    outer loop
      vertex 0.030384 23.6673 0
      vertex 0.120615 24.004 0
      vertex 0 23.32 0
    endloop
  endfacet
  facet normal 0 0 -1
    outer loop
      vertex 0 23.32 0
      vertex 0.120615 24.004 0
      vertex 0.267949 24.32 0
    endloop
  endfacet
  facet normal 0 0 -1
    outer loop
      vertex 0 23.32 0
      vertex 0.267949 24.32 0
      vertex 0.467911 24.6056 0
    endloop
  endfacet
  facet normal 0 0 -1
    outer loop
      vertex 0 23.32 0
      vertex 0.467911 24.6056 0
      vertex 0.714425 24.8521 0
    endloop
  endfacet
  facet normal 0 0 -1
    outer loop
      vertex 0 23.32 0
      vertex 0.714425 24.8521 0
      vertex 1 25.0521 0
    endloop
  endfacet
  facet normal 0 0 -1
    outer loop
      vertex 0 23.32 0
      vertex 1 25.0521 0
      vertex 1.31596 25.1994 0
    endloop
  endfacet
  facet normal 0 0 -1
    outer loop
      vertex 0 23.32 0
      vertex 1.31596 25.1994 0
      vertex 1.6527 25.2896 0
    endloop
  endfacet
  facet normal 0 0 -1
    outer loop
      vertex 0 23.32 0
      vertex 1.6527 25.2896 0
      vertex 2 25.32 0
    endloop
  endfacet
  facet normal 0 0 -1
    outer loop
      vertex 0 23.32 0
      vertex 2 25.32 0
      vertex 41.01 25.32 0
    endloop
  endfacet
  facet normal 0 0 -1
    outer loop
      vertex 0 23.32 0
      vertex 41.01 25.32 0
      vertex 41.3573 25.2896 0
    endloop
  endfacet
  facet normal 0 0 -1
    outer loop
      vertex 0 23.32 0
      vertex 41.3573 25.2896 0
      vertex 41.694 25.1994 0
    endloop
  endfacet
  facet normal 0 0 -1
    outer loop
      vertex 0 23.32 0
      vertex 41.694 25.1994 0
      vertex 42.01 25.0521 0
    endloop
  endfacet
  facet normal 0 0 -1
    outer loop
      vertex 0 23.32 0
      vertex 42.01 25.0521 0
      vertex 42.2956 24.8521 0
    endloop
  endfacet
  facet normal 0 0 -1
    outer loop
      vertex 0 23.32 0
      vertex 42.2956 24.8521 0
      vertex 42.5421 24.6056 0
    endloop
  endfacet
  facet normal 0 0 -1
    outer loop
      vertex 0 23.32 0
      vertex 42.5421 24.6056 0
      vertex 42.7421 24.32 0
    endloop
  endfacet
  facet normal 0 0 -1
    outer loop
      vertex 0 23.32 0
      vertex 42.7421 24.32 0
      vertex 42.8894 24.004 0
    endloop
  endfacet
  facet normal 0 0 -1
    outer loop
      vertex 0 23.32 0
      vertex 42.8894 24.004 0
      vertex 42.9796 23.6673 0
    endloop
  endfacet
  facet normal 0 0 -1
    outer loop
      vertex 0 23.32 0
      vertex 42.9796 23.6673 0
      vertex 43.01 23.32 0
    endloop
  endfacet
  facet normal 0 0 -1
    outer loop
      vertex 0 23.32 0
      vertex 43.01 23.32 0
      vertex 43.01 2 0
    endloop
  endfacet
  facet normal 0 0 -1
    outer loop
      vertex 0 23.32 0
      vertex 43.01 2 0
      vertex 42.9796 1.6527 0
    endloop
  endfacet
  facet normal 0 0 -1
    outer loop
      vertex 0 23.32 0
      vertex 42.9796 1.6527 0
      vertex 42.8894 1.31596 0
    endloop
  endfacet
  facet normal 0 0 -1
    outer loop
      vertex 0 23.32 0
      vertex 42.8894 1.31596 0
      vertex 42.7421 1 0
    endloop
  endfacet
  facet normal 0 0 -1
    outer loop
      vertex 0 23.32 0
      vertex 42.7421 1 0
      vertex 42.5421 0.714425 0
    endloop
  endfacet
  facet normal 0 0 -1
    outer loop
      vertex 0 23.32 0
      vertex 42.5421 0.714425 0
      vertex 42.2956 0.467911 0
    endloop
  endfacet
  facet normal 0 0 -1
    outer loop
      vertex 0 23.32 0
      vertex 42.2956 0.467911 0
      vertex 42.01 0.267949 0
    endloop
  endfacet
  facet normal 0 0 -1
    outer loop
      vertex 0 23.32 0
      vertex 42.01 0.267949 0
      vertex 41.694 0.120615 0
    endloop
  endfacet
  facet normal 0 0 -1
    outer loop
      vertex 0 23.32 0
      vertex 41.694 0.120615 0
      vertex 41.3573 0.030384 0
    endloop
  endfacet
  facet normal 0 0 -1
    outer loop
      vertex 0 23.32 0
      vertex 41.3573 0.030384 0
      vertex 41.01 0 0
    endloop
  endfacet
  facet normal 0 0 -1
    outer loop
      vertex 0 23.32 0
      vertex 41.01 0 0
      vertex 2 0 0
    endloop
  endfacet
  facet normal 0 0 -1
    outer loop
      vertex 0 23.32 0
      vertex 2 0 0
      vertex 1.6527 0.030384 0
    endloop
  endfacet
  facet normal 0 0 -1
    outer loop
      vertex 0 23.32 0
      vertex 1.6527 0.030384 0
      vertex 1.31596 0.120615 0
    endloop
  endfacet
  facet normal 0 0 -1
    outer loop
      vertex 0 23.32 0
      vertex 1.31596 0.120615 0
      vertex 1 0.267949 0
    endloop
  endfacet
  facet normal 0 0 -1
    outer loop
      vertex 0 23.32 0
      vertex 1 0.267949 0
      vertex 0.714425 0.467911 0
    endloop
  endfacet
  facet normal 0 0 -1
    outer loop
      vertex 0 23.32 0
      vertex 0.714425 0.467911 0
      vertex 0.467911 0.714425 0
    endloop
  endfacet
  facet normal 0 0 -1
    outer loop
      vertex 0 23.32 0
      vertex 0.467911 0.714425 0
      vertex 0.267949 1 0
    endloop
  endfacet
  facet normal 0 0 -1
    outer loop
      vertex 0 23.32 0
      vertex 0.267949 1 0
      vertex 0.120615 1.31596 0
    endloop
  endfacet
  facet normal 0 0 -1
    outer loop
      vertex 0 23.32 0
      vertex 0.120615 1.31596 0
      vertex 0.030384 1.6527 0
    endloop
  endfacet
  facet normal 0 0 -1
    outer loop
      vertex 0 23.32 0
      vertex 0.030384 1.6527 0
      vertex 0 2 0
    endloop
  endfacet
  facet normal 0 0 1
    outer loop
      vertex 0.030384 1.6527 5.1
      vertex 0.120615 1.31596 5.1
      vertex 0.267949 1 5.1
    endloop
  endfacet
  facet normal 0 0 1
    outer loop
      vertex 0.714425 0.467911 5.1
      vertex 0.030384 1.6527 5.1
      vertex 0.467911 0.714425 5.1
    endloop
  endfacet
  facet normal 0 0 1
    outer loop
      vertex 0.467911 0.714425 5.1
      vertex 0.030384 1.6527 5.1
      vertex 0.267949 1 5.1
    endloop
  endfacet
  facet normal 0 0 1
    outer loop
      vertex 1 0.267949 5.1
      vertex 0.030384 1.6527 5.1
      vertex 0.714425 0.467911 5.1
    endloop
  endfacet
  facet normal 0 0 1
    outer loop
      vertex 1.31596 0.120615 5.1
      vertex 0.030384 1.6527 5.1
      vertex 1 0.267949 5.1
    endloop
  endfacet
  facet normal 0 0 1
    outer loop
      vertex 1.6527 0.030384 5.1
      vertex 0.030384 1.6527 5.1
      vertex 1.31596 0.120615 5.1
    endloop
  endfacet
  facet normal 0 0 1
    outer loop
      vertex 2 0 5.1
      vertex 0.030384 1.6527 5.1
      vertex 1.6527 0.030384 5.1
    endloop
  endfacet
  facet normal 0 0 1
    outer loop
      vertex 41.01 0 5.1
      vertex 0.030384 1.6527 5.1
      vertex 2 0 5.1
    endloop
  endfacet
  facet normal 0 0 1
    outer loop
      vertex 41.3573 0.030384 5.1
      vertex 0.030384 1.6527 5.1
      vertex 41.01 0 5.1
    endloop
  endfacet
  facet normal 0 0 1
    outer loop
      vertex 41.694 0.120615 5.1
      vertex 0.030384 1.6527 5.1
      vertex 41.3573 0.030384 5.1
    endloop
  endfacet
  facet normal 0 0 1
    outer loop
      vertex 42.01 0.267949 5.1
      vertex 0.030384 1.6527 5.1
      vertex 41.694 0.120615 5.1
    endloop
  endfacet
  facet normal 0 0 1
    outer loop
      vertex 42.2956 0.467911 5.1
      vertex 0.030384 1.6527 5.1
      vertex 42.01 0.267949 5.1
    endloop
  endfacet
  facet normal 0 0 1
    outer loop
      vertex 42.5421 0.714425 5.1
      vertex 0.030384 1.6527 5.1
      vertex 42.2956 0.467911 5.1
    endloop
  endfacet
  facet normal 0 0 1
    outer loop
      vertex 42.7421 1 5.1
      vertex 0.030384 1.6527 5.1
      vertex 42.5421 0.714425 5.1
    endloop
  endfacet
  facet normal 0 0 1
    outer loop
      vertex 42.8894 1.31596 5.1
      vertex 0.030384 1.6527 5.1
      vertex 42.7421 1 5.1
    endloop
  endfacet
  facet normal 0 0 1
    outer loop
      vertex 42.9796 1.6527 5.1
      vertex 0.030384 1.6527 5.1
      vertex 42.8894 1.31596 5.1
    endloop
  endfacet
  facet normal 0 0 1
    outer loop
      vertex 43.01 2 5.1
      vertex 0.030384 1.6527 5.1
      vertex 42.9796 1.6527 5.1
    endloop
  endfacet
  facet normal 0 0 1
    outer loop
      vertex 41.01 2 5.1
      vertex 0.030384 1.6527 5.1
      vertex 43.01 2 5.1
    endloop
  endfacet
  facet normal 0 0 1
    outer loop
      vertex 2 6.89 5.1
      vertex 0 6.89 5.1
      vertex 0.030384 1.6527 5.1
    endloop
  endfacet
  facet normal 0 0 1
    outer loop
      vertex 41.01 23.32 5.1
      vertex 42.9796 23.6673 5.1
      vertex 42.8894 24.004 5.1
    endloop
  endfacet
  facet normal 0 0 1
    outer loop
      vertex 41.01 23.32 5.1
      vertex 43.01 23.32 5.1
      vertex 42.9796 23.6673 5.1
    endloop
  endfacet
  facet normal 0 0 1
    outer loop
      vertex 41.01 23.32 5.1
      vertex 41.01 2 5.1
      vertex 43.01 23.32 5.1
    endloop
  endfacet
  facet normal 0 0 1
    outer loop
      vertex 2 23.32 5.1
      vertex 41.3573 25.2896 5.1
      vertex 41.01 25.32 5.1
    endloop
  endfacet
  facet normal 0 0 1
    outer loop
      vertex 2 23.32 5.1
      vertex 41.694 25.1994 5.1
      vertex 41.3573 25.2896 5.1
    endloop
  endfacet
  facet normal 0 0 1
    outer loop
      vertex 2 23.32 5.1
      vertex 42.01 25.0521 5.1
      vertex 41.694 25.1994 5.1
    endloop
  endfacet
  facet normal 0 0 1
    outer loop
      vertex 2 23.32 5.1
      vertex 42.2956 24.8521 5.1
      vertex 42.01 25.0521 5.1
    endloop
  endfacet
  facet normal 0 0 1
    outer loop
      vertex 2 23.32 5.1
      vertex 42.5421 24.6056 5.1
      vertex 42.2956 24.8521 5.1
    endloop
  endfacet
  facet normal 0 0 1
    outer loop
      vertex 2 23.32 5.1
      vertex 42.7421 24.32 5.1
      vertex 42.5421 24.6056 5.1
    endloop
  endfacet
  facet normal 0 0 1
    outer loop
      vertex 2 23.32 5.1
      vertex 41.01 23.32 5.1
      vertex 42.7421 24.32 5.1
    endloop
  endfacet
  facet normal 0 0 1
    outer loop
      vertex 2 25.32 5.1
      vertex 2 23.32 5.1
      vertex 41.01 25.32 5.1
    endloop
  endfacet
  facet normal 0 0 1
    outer loop
      vertex 42.7421 24.32 5.1
      vertex 41.01 23.32 5.1
      vertex 42.8894 24.004 5.1
    endloop
  endfacet
  facet normal 0 0 1
    outer loop
      vertex 43.01 23.32 5.1
      vertex 41.01 2 5.1
      vertex 43.01 2 5.1
    endloop
  endfacet
  facet normal 0 0 1
    outer loop
      vertex 2 2 5.1
      vertex 0.030384 1.6527 5.1
      vertex 41.01 2 5.1
    endloop
  endfacet
  facet normal 0 0 1
    outer loop
      vertex 2 2 5.1
      vertex 2 6.89 5.1
      vertex 0.030384 1.6527 5.1
    endloop
  endfacet
  facet normal 0 0 1
    outer loop
      vertex 0 2 5.1
      vertex 0.030384 1.6527 5.1
      vertex 0 6.89 5.1
    endloop
  endfacet
  facet normal 0 0 1
    outer loop
      vertex 0 15.89 5.1
      vertex 0.030384 23.6673 5.1
      vertex 0 23.32 5.1
    endloop
  endfacet
  facet normal 0 0 1
    outer loop
      vertex 0 15.89 5.1
      vertex 0.120615 24.004 5.1
      vertex 0.030384 23.6673 5.1
    endloop
  endfacet
  facet normal 0 0 1
    outer loop
      vertex 0 15.89 5.1
      vertex 0.267949 24.32 5.1
      vertex 0.120615 24.004 5.1
    endloop
  endfacet
  facet normal 0 0 1
    outer loop
      vertex 0 15.89 5.1
      vertex 0.467911 24.6056 5.1
      vertex 0.267949 24.32 5.1
    endloop
  endfacet
  facet normal 0 0 1
    outer loop
      vertex 0 15.89 5.1
      vertex 0.714425 24.8521 5.1
      vertex 0.467911 24.6056 5.1
    endloop
  endfacet
  facet normal 0 0 1
    outer loop
      vertex 0 15.89 5.1
      vertex 1 25.0521 5.1
      vertex 0.714425 24.8521 5.1
    endloop
  endfacet
  facet normal 0 0 1
    outer loop
      vertex 0 15.89 5.1
      vertex 1.31596 25.1994 5.1
      vertex 1 25.0521 5.1
    endloop
  endfacet
  facet normal 0 0 1
    outer loop
      vertex 0 15.89 5.1
      vertex 1.6527 25.2896 5.1
      vertex 1.31596 25.1994 5.1
    endloop
  endfacet
  facet normal 0 0 1
    outer loop
      vertex 0 15.89 5.1
      vertex 2 25.32 5.1
      vertex 1.6527 25.2896 5.1
    endloop
  endfacet
  facet normal 0 0 1
    outer loop
      vertex 0 15.89 5.1
      vertex 2 23.32 5.1
      vertex 2 25.32 5.1
    endloop
  endfacet
  facet normal 0 0 1
    outer loop
      vertex 0 15.89 5.1
      vertex 2 15.89 5.1
      vertex 2 23.32 5.1
    endloop
  endfacet
  facet normal -0.996195 0.0871544 0
    outer loop
      vertex 0.030384 23.6673 5.1
      vertex 0.030384 23.6673 0
      vertex 0 23.32 5.1
    endloop
  endfacet
  facet normal -0.996195 0.0871544 0
    outer loop
      vertex 0 23.32 5.1
      vertex 0.030384 23.6673 0
      vertex 0 23.32 0
    endloop
  endfacet
  facet normal 0 -1 0
    outer loop
      vertex 2 15.89 3
      vertex 2 15.89 5.1
      vertex 0 15.89 5.1
    endloop
  endfacet
  facet normal 0 -1 0
    outer loop
      vertex 0 15.89 3
      vertex 2 15.89 3
      vertex 0 15.89 5.1
    endloop
  endfacet
  facet normal 0 0 1
    outer loop
      vertex 2 6.89 3
      vertex 2 15.89 3
      vertex 0 15.89 3
    endloop
  endfacet
  facet normal 0 0 1
    outer loop
      vertex 0 6.89 3
      vertex 2 6.89 3
      vertex 0 15.89 3
    endloop
  endfacet
  facet normal 0 1 0
    outer loop
      vertex 2 6.89 5.1
      vertex 2 6.89 3
      vertex 0 6.89 5.1
    endloop
  endfacet
  facet normal 0 1 0
    outer loop
      vertex 0 6.89 5.1
      vertex 2 6.89 3
      vertex 0 6.89 3
    endloop
  endfacet
  facet normal -0.965925 -0.258821 0
    outer loop
      vertex 0.120615 1.31596 5.1
      vertex 0.030384 1.6527 5.1
      vertex 0.120615 1.31596 0
    endloop
  endfacet
  facet normal -0.965925 -0.258821 0
    outer loop
      vertex 0.120615 1.31596 0
      vertex 0.030384 1.6527 5.1
      vertex 0.030384 1.6527 0
    endloop
  endfacet
  facet normal -0.906308 -0.422617 0
    outer loop
      vertex 0.267949 1 5.1
      vertex 0.120615 1.31596 5.1
      vertex 0.267949 1 0
    endloop
  endfacet
  facet normal -0.906308 -0.422617 0
    outer loop
      vertex 0.267949 1 0
      vertex 0.120615 1.31596 5.1
      vertex 0.120615 1.31596 0
    endloop
  endfacet
  facet normal -0.819152 -0.573577 0
    outer loop
      vertex 0.467911 0.714425 5.1
      vertex 0.267949 1 5.1
      vertex 0.467911 0.714425 0
    endloop
  endfacet
  facet normal -0.819152 -0.573577 0
    outer loop
      vertex 0.467911 0.714425 0
      vertex 0.267949 1 5.1
      vertex 0.267949 1 0
    endloop
  endfacet
  facet normal -0.707107 -0.707107 0
    outer loop
      vertex 0.714425 0.467911 0
      vertex 0.714425 0.467911 5.1
      vertex 0.467911 0.714425 5.1
    endloop
  endfacet
  facet normal -0.707107 -0.707107 0
    outer loop
      vertex 0.467911 0.714425 0
      vertex 0.714425 0.467911 0
      vertex 0.467911 0.714425 5.1
    endloop
  endfacet
  facet normal -0.573577 -0.819152 0
    outer loop
      vertex 1 0.267949 0
      vertex 1 0.267949 5.1
      vertex 0.714425 0.467911 5.1
    endloop
  endfacet
  facet normal -0.573577 -0.819152 0
    outer loop
      vertex 0.714425 0.467911 0
      vertex 1 0.267949 0
      vertex 0.714425 0.467911 5.1
    endloop
  endfacet
  facet normal -0.422617 -0.906308 0
    outer loop
      vertex 1.31596 0.120615 0
      vertex 1.31596 0.120615 5.1
      vertex 1 0.267949 5.1
    endloop
  endfacet
  facet normal -0.422617 -0.906308 0
    outer loop
      vertex 1 0.267949 0
      vertex 1.31596 0.120615 0
      vertex 1 0.267949 5.1
    endloop
  endfacet
  facet normal -0.258821 -0.965925 0
    outer loop
      vertex 1.6527 0.030384 0
      vertex 1.6527 0.030384 5.1
      vertex 1.31596 0.120615 5.1
    endloop
  endfacet
  facet normal -0.258821 -0.965925 0
    outer loop
      vertex 1.31596 0.120615 0
      vertex 1.6527 0.030384 0
      vertex 1.31596 0.120615 5.1
    endloop
  endfacet
  facet normal -0.0871544 -0.996195 0
    outer loop
      vertex 2 0 0
      vertex 2 0 5.1
      vertex 1.6527 0.030384 5.1
    endloop
  endfacet
  facet normal -0.0871544 -0.996195 0
    outer loop
      vertex 1.6527 0.030384 0
      vertex 2 0 0
      vertex 1.6527 0.030384 5.1
    endloop
  endfacet
  facet normal 0 -1 0
    outer loop
      vertex 41.01 0 0
      vertex 41.01 0 5.1
      vertex 2 0 5.1
    endloop
  endfacet
  facet normal 0 -1 0
    outer loop
      vertex 2 0 0
      vertex 41.01 0 0
      vertex 2 0 5.1
    endloop
  endfacet
  facet normal 0.0871544 -0.996195 0
    outer loop
      vertex 41.3573 0.030384 0
      vertex 41.3573 0.030384 5.1
      vertex 41.01 0 5.1
    endloop
  endfacet
  facet normal 0.0871544 -0.996195 0
    outer loop
      vertex 41.01 0 0
      vertex 41.3573 0.030384 0
      vertex 41.01 0 5.1
    endloop
  endfacet
  facet normal 0.258821 -0.965925 0
    outer loop
      vertex 41.694 0.120615 0
      vertex 41.694 0.120615 5.1
      vertex 41.3573 0.030384 5.1
    endloop
  endfacet
  facet normal 0.258821 -0.965925 0
    outer loop
      vertex 41.3573 0.030384 0
      vertex 41.694 0.120615 0
      vertex 41.3573 0.030384 5.1
    endloop
  endfacet
  facet normal 0.422617 -0.906308 0
    outer loop
      vertex 42.01 0.267949 0
      vertex 42.01 0.267949 5.1
      vertex 41.694 0.120615 5.1
    endloop
  endfacet
  facet normal 0.422617 -0.906308 0
    outer loop
      vertex 41.694 0.120615 0
      vertex 42.01 0.267949 0
      vertex 41.694 0.120615 5.1
    endloop
  endfacet
  facet normal 0.573577 -0.819152 0
    outer loop
      vertex 42.2956 0.467911 0
      vertex 42.2956 0.467911 5.1
      vertex 42.01 0.267949 5.1
    endloop
  endfacet
  facet normal 0.573577 -0.819152 0
    outer loop
      vertex 42.01 0.267949 0
      vertex 42.2956 0.467911 0
      vertex 42.01 0.267949 5.1
    endloop
  endfacet
  facet normal 0.707107 -0.707107 0
    outer loop
      vertex 42.5421 0.714425 0
      vertex 42.5421 0.714425 5.1
      vertex 42.2956 0.467911 5.1
    endloop
  endfacet
  facet normal 0.707107 -0.707107 0
    outer loop
      vertex 42.2956 0.467911 0
      vertex 42.5421 0.714425 0
      vertex 42.2956 0.467911 5.1
    endloop
  endfacet
  facet normal 0.819152 -0.573577 0
    outer loop
      vertex 42.7421 1 0
      vertex 42.7421 1 5.1
      vertex 42.5421 0.714425 5.1
    endloop
  endfacet
  facet normal 0.819152 -0.573577 0
    outer loop
      vertex 42.5421 0.714425 0
      vertex 42.7421 1 0
      vertex 42.5421 0.714425 5.1
    endloop
  endfacet
  facet normal 0.906308 -0.422617 0
    outer loop
      vertex 42.8894 1.31596 0
      vertex 42.8894 1.31596 5.1
      vertex 42.7421 1 5.1
    endloop
  endfacet
  facet normal 0.906308 -0.422617 0
    outer loop
      vertex 42.7421 1 0
      vertex 42.8894 1.31596 0
      vertex 42.7421 1 5.1
    endloop
  endfacet
  facet normal 0.965925 -0.258821 0
    outer loop
      vertex 42.9796 1.6527 0
      vertex 42.9796 1.6527 5.1
      vertex 42.8894 1.31596 5.1
    endloop
  endfacet
  facet normal 0.965925 -0.258821 0
    outer loop
      vertex 42.8894 1.31596 0
      vertex 42.9796 1.6527 0
      vertex 42.8894 1.31596 5.1
    endloop
  endfacet
  facet normal 0.996195 -0.0871544 0
    outer loop
      vertex 43.01 2 0
      vertex 43.01 2 5.1
      vertex 42.9796 1.6527 5.1
    endloop
  endfacet
  facet normal 0.996195 -0.0871544 0
    outer loop
      vertex 42.9796 1.6527 0
      vertex 43.01 2 0
      vertex 42.9796 1.6527 5.1
    endloop
  endfacet
  facet normal 1 0 0
    outer loop
      vertex 43.01 23.32 0
      vertex 43.01 23.32 5.1
      vertex 43.01 2 5.1
    endloop
  endfacet
  facet normal 1 0 0
    outer loop
      vertex 43.01 2 0
      vertex 43.01 23.32 0
      vertex 43.01 2 5.1
    endloop
  endfacet
  facet normal 0.996195 0.0871544 0
    outer loop
      vertex 42.9796 23.6673 5.1
      vertex 43.01 23.32 5.1
      vertex 43.01 23.32 0
    endloop
  endfacet
  facet normal 0.996195 0.0871544 0
    outer loop
      vertex 42.9796 23.6673 0
      vertex 42.9796 23.6673 5.1
      vertex 43.01 23.32 0
    endloop
  endfacet
  facet normal 0.965925 0.258821 0
    outer loop
      vertex 42.8894 24.004 5.1
      vertex 42.9796 23.6673 5.1
      vertex 42.9796 23.6673 0
    endloop
  endfacet
  facet normal 0.965925 0.258821 0
    outer loop
      vertex 42.8894 24.004 0
      vertex 42.8894 24.004 5.1
      vertex 42.9796 23.6673 0
    endloop
  endfacet
  facet normal 0.906308 0.422617 0
    outer loop
      vertex 42.7421 24.32 5.1
      vertex 42.8894 24.004 5.1
      vertex 42.8894 24.004 0
    endloop
  endfacet
  facet normal 0.906308 0.422617 0
    outer loop
      vertex 42.7421 24.32 0
      vertex 42.7421 24.32 5.1
      vertex 42.8894 24.004 0
    endloop
  endfacet
  facet normal 0.819152 0.573577 0
    outer loop
      vertex 42.5421 24.6056 5.1
      vertex 42.7421 24.32 5.1
      vertex 42.7421 24.32 0
    endloop
  endfacet
  facet normal 0.819152 0.573577 0
    outer loop
      vertex 42.5421 24.6056 0
      vertex 42.5421 24.6056 5.1
      vertex 42.7421 24.32 0
    endloop
  endfacet
  facet normal 0.707107 0.707107 0
    outer loop
      vertex 42.5421 24.6056 5.1
      vertex 42.5421 24.6056 0
      vertex 42.2956 24.8521 5.1
    endloop
  endfacet
  facet normal 0.707107 0.707107 0
    outer loop
      vertex 42.2956 24.8521 5.1
      vertex 42.5421 24.6056 0
      vertex 42.2956 24.8521 0
    endloop
  endfacet
  facet normal 0.573577 0.819152 0
    outer loop
      vertex 42.2956 24.8521 5.1
      vertex 42.2956 24.8521 0
      vertex 42.01 25.0521 5.1
    endloop
  endfacet
  facet normal 0.573577 0.819152 0
    outer loop
      vertex 42.01 25.0521 5.1
      vertex 42.2956 24.8521 0
      vertex 42.01 25.0521 0
    endloop
  endfacet
  facet normal 0.422617 0.906308 0
    outer loop
      vertex 42.01 25.0521 5.1
      vertex 42.01 25.0521 0
      vertex 41.694 25.1994 5.1
    endloop
  endfacet
  facet normal 0.422617 0.906308 0
    outer loop
      vertex 41.694 25.1994 5.1
      vertex 42.01 25.0521 0
      vertex 41.694 25.1994 0
    endloop
  endfacet
  facet normal 0.258821 0.965925 0
    outer loop
      vertex 41.694 25.1994 5.1
      vertex 41.694 25.1994 0
      vertex 41.3573 25.2896 5.1
    endloop
  endfacet
  facet normal 0.258821 0.965925 0
    outer loop
      vertex 41.3573 25.2896 5.1
      vertex 41.694 25.1994 0
      vertex 41.3573 25.2896 0
    endloop
  endfacet
  facet normal 0.0871544 0.996195 0
    outer loop
      vertex 41.3573 25.2896 5.1
      vertex 41.3573 25.2896 0
      vertex 41.01 25.32 5.1
    endloop
  endfacet
  facet normal 0.0871544 0.996195 0
    outer loop
      vertex 41.01 25.32 5.1
      vertex 41.3573 25.2896 0
      vertex 41.01 25.32 0
    endloop
  endfacet
  facet normal 0 1 0
    outer loop
      vertex 41.01 25.32 5.1
      vertex 41.01 25.32 0
      vertex 2 25.32 5.1
    endloop
  endfacet
  facet normal 0 1 0
    outer loop
      vertex 2 25.32 5.1
      vertex 41.01 25.32 0
      vertex 2 25.32 0
    endloop
  endfacet
  facet normal -0.0871544 0.996195 0
    outer loop
      vertex 2 25.32 5.1
      vertex 2 25.32 0
      vertex 1.6527 25.2896 5.1
    endloop
  endfacet
  facet normal -0.0871544 0.996195 0
    outer loop
      vertex 1.6527 25.2896 5.1
      vertex 2 25.32 0
      vertex 1.6527 25.2896 0
    endloop
  endfacet
  facet normal -0.258821 0.965925 0
    outer loop
      vertex 1.6527 25.2896 5.1
      vertex 1.6527 25.2896 0
      vertex 1.31596 25.1994 5.1
    endloop
  endfacet
  facet normal -0.258821 0.965925 0
    outer loop
      vertex 1.31596 25.1994 5.1
      vertex 1.6527 25.2896 0
      vertex 1.31596 25.1994 0
    endloop
  endfacet
  facet normal -0.422617 0.906308 0
    outer loop
      vertex 1.31596 25.1994 5.1
      vertex 1.31596 25.1994 0
      vertex 1 25.0521 5.1
    endloop
  endfacet
  facet normal -0.422617 0.906308 0
    outer loop
      vertex 1 25.0521 5.1
      vertex 1.31596 25.1994 0
      vertex 1 25.0521 0
    endloop
  endfacet
  facet normal -0.573577 0.819152 0
    outer loop
      vertex 1 25.0521 5.1
      vertex 1 25.0521 0
      vertex 0.714425 24.8521 5.1
    endloop
  endfacet
  facet normal -0.573577 0.819152 0
    outer loop
      vertex 0.714425 24.8521 5.1
      vertex 1 25.0521 0
      vertex 0.714425 24.8521 0
    endloop
  endfacet
  facet normal -0.707107 0.707107 0
    outer loop
      vertex 0.714425 24.8521 5.1
      vertex 0.714425 24.8521 0
      vertex 0.467911 24.6056 5.1
    endloop
  endfacet
  facet normal -0.707107 0.707107 0
    outer loop
      vertex 0.467911 24.6056 5.1
      vertex 0.714425 24.8521 0
      vertex 0.467911 24.6056 0
    endloop
  endfacet
  facet normal -0.819152 0.573577 0
    outer loop
      vertex 0.467911 24.6056 5.1
      vertex 0.467911 24.6056 0
      vertex 0.267949 24.32 5.1
    endloop
  endfacet
  facet normal -0.819152 0.573577 0
    outer loop
      vertex 0.267949 24.32 5.1
      vertex 0.467911 24.6056 0
      vertex 0.267949 24.32 0
    endloop
  endfacet
  facet normal -0.906308 0.422617 0
    outer loop
      vertex 0.267949 24.32 5.1
      vertex 0.267949 24.32 0
      vertex 0.120615 24.004 5.1
    endloop
  endfacet
  facet normal -0.906308 0.422617 0
    outer loop
      vertex 0.120615 24.004 5.1
      vertex 0.267949 24.32 0
      vertex 0.120615 24.004 0
    endloop
  endfacet
  facet normal -0.965925 0.258821 0
    outer loop
      vertex 0.120615 24.004 5.1
      vertex 0.120615 24.004 0
      vertex 0.030384 23.6673 5.1
    endloop
  endfacet
  facet normal -0.965925 0.258821 0
    outer loop
      vertex 0.030384 23.6673 5.1
      vertex 0.120615 24.004 0
      vertex 0.030384 23.6673 0
    endloop
  endfacet
  facet normal 1 0 0
    outer loop
      vertex 2 23.32 1.5
      vertex 2 23.32 5.1
      vertex 2 15.89 5.1
    endloop
  endfacet
  facet normal 1 0 0
    outer loop
      vertex 2 6.89 3
      vertex 2 23.32 1.5
      vertex 2 15.89 3
    endloop
  endfacet
  facet normal 1 0 0
    outer loop
      vertex 2 15.89 3
      vertex 2 23.32 1.5
      vertex 2 15.89 5.1
    endloop
  endfacet
  facet normal 1 0 0
    outer loop
      vertex 2 2 1.5
      vertex 2 23.32 1.5
      vertex 2 6.89 3
    endloop
  endfacet
  facet normal 1 0 0
    outer loop
      vertex 2 2 5.1
      vertex 2 6.89 3
      vertex 2 6.89 5.1
    endloop
  endfacet
  facet normal 1 0 0
    outer loop
      vertex 2 2 1.5
      vertex 2 6.89 3
      vertex 2 2 5.1
    endloop
  endfacet
  facet normal 0 1 0
    outer loop
      vertex 41.01 2 5.1
      vertex 41.01 2 1.5
      vertex 2 2 5.1
    endloop
  endfacet
  facet normal 0 1 0
    outer loop
      vertex 2 2 5.1
      vertex 41.01 2 1.5
      vertex 2 2 1.5
    endloop
  endfacet
  facet normal -1 0 0
    outer loop
      vertex 41.01 23.32 5.1
      vertex 41.01 23.32 1.5
      vertex 41.01 2 5.1
    endloop
  endfacet
  facet normal -1 0 0
    outer loop
      vertex 41.01 2 5.1
      vertex 41.01 23.32 1.5
      vertex 41.01 2 1.5
    endloop
  endfacet
  facet normal 0 -1 0
    outer loop
      vertex 41.01 23.32 1.5
      vertex 41.01 23.32 5.1
      vertex 2 23.32 5.1
    endloop
  endfacet
  facet normal 0 -1 0
    outer loop
      vertex 2 23.32 1.5
      vertex 41.01 23.32 1.5
      vertex 2 23.32 5.1
    endloop
  endfacet
  facet normal 0 0 1
    outer loop
      vertex 41.01 2 1.5
      vertex 41.01 23.32 1.5
      vertex 2 23.32 1.5
    endloop
  endfacet
  facet normal 0 0 1
    outer loop
      vertex 2 2 1.5
      vertex 41.01 2 1.5
      vertex 2 23.32 1.5
    endloop
  endfacet
endsolid OpenSCAD_Model
